<?xml version="1.0" encoding="UTF-8" standalone="no"?>
<svg
   xmlns:dc="http://purl.org/dc/elements/1.1/"
   xmlns:cc="http://creativecommons.org/ns#"
   xmlns:rdf="http://www.w3.org/1999/02/22-rdf-syntax-ns#"
   xmlns:svg="http://www.w3.org/2000/svg"
   xmlns="http://www.w3.org/2000/svg"
   xmlns:sodipodi="http://sodipodi.sourceforge.net/DTD/sodipodi-0.dtd"
   xmlns:inkscape="http://www.inkscape.org/namespaces/inkscape"
   width="210mm"
   height="297mm"
   viewBox="0 0 210 297"
   version="1.1"
   id="svg1084"
   inkscape:export-filename="C:\Users\Archie\Documents\Projects\Repos\RaylibGameJam\resources\Misc\watertub.png"
   inkscape:export-xdpi="1000"
   inkscape:export-ydpi="1000"
   inkscape:version="1.0.1 (3bc2e813f5, 2020-09-07)"
   sodipodi:docname="sink.svg">
  <defs
     id="defs1078" />
  <sodipodi:namedview
     id="base"
     pagecolor="#ffffff"
     bordercolor="#666666"
     borderopacity="1.0"
     inkscape:pageopacity="0.0"
     inkscape:pageshadow="2"
     inkscape:zoom="0.98994949"
     inkscape:cx="681.83312"
     inkscape:cy="417.6736"
     inkscape:document-units="mm"
     inkscape:current-layer="layer9"
     inkscape:document-rotation="0"
     showgrid="false"
     inkscape:window-width="2560"
     inkscape:window-height="1417"
     inkscape:window-x="-8"
     inkscape:window-y="-8"
     inkscape:window-maximized="1" />
  <metadata
     id="metadata1081">
    <rdf:RDF>
      <cc:Work
         rdf:about="">
        <dc:format>image/svg+xml</dc:format>
        <dc:type
           rdf:resource="http://purl.org/dc/dcmitype/StillImage" />
        <dc:title />
      </cc:Work>
    </rdf:RDF>
  </metadata>
  <g
     inkscape:groupmode="layer"
     id="layer9"
     inkscape:label="Layer 3"
     style="display:inline">
    <path
       style="fill:#aa4400;stroke:#000000;stroke-width:5.30484;stroke-linecap:round;stroke-linejoin:round;stroke-miterlimit:4;stroke-dasharray:none;stroke-opacity:0;paint-order:stroke markers fill"
       d="m 132.73672,407.38765 c -6.04751,-0.29304 -10.44707,5.78487 -8.95851,11.51652 4.56404,102.14481 8.83919,204.31653 13.72553,306.43548 0.0773,8.212 2.63809,16.28991 8.20173,22.45117 8.61383,9.91103 18.10739,19.74135 29.97349,25.69337 6.25432,3.2813 14.35403,-2.04297 13.56864,-9.14342 -3.83625,-104.36183 -8.36465,-208.70505 -12.759,-313.04748 -0.97118,-6.56142 1.05944,-14.52433 -3.33835,-19.97781 -7.90713,-5.55925 -17.1594,-9.28102 -24.73273,-15.48336 -4.7322,-3.45643 -9.31385,-8.65322 -15.6808,-8.44447 z"
       id="path2362"
       transform="scale(0.26458333)" />
    <path
       style="fill:#aa4400;stroke:#000000;stroke-width:5.30484;stroke-linecap:round;stroke-linejoin:round;stroke-miterlimit:4;stroke-dasharray:none;stroke-opacity:0;paint-order:stroke markers fill"
       d="m 176.19654,433.83854 c -6.23433,0.32449 -8.65405,7.31205 -7.36615,12.63858 4.63683,106.99542 8.71693,214.01573 13.49657,321.00414 0.40614,5.02776 -0.12702,11.76203 5.30931,14.3065 -1.02852,-0.39566 4.45042,2.63287 6.01005,3.37054 15.4369,7.3871 30.56672,15.97703 47.1582,20.50362 5.95688,1.605 12.65813,-3.11277 11.38239,-9.56725 -4.11392,-87.98284 -7.23293,-176.4216 -11.03223,-264.57843 -1.19479,-24.19974 -1.7096,-48.46712 -3.45144,-72.6205 -1.08875,-7.01313 -8.56446,-9.12507 -14.46459,-10.43383 -14.38401,-3.86464 -28.25664,-9.29089 -42.34345,-14.04022 -1.5279,-0.40375 -3.111,-0.71428 -4.69866,-0.58315 z"
       id="path2364"
       transform="scale(0.26458333)" />
    <path
       style="fill:#aa4400;stroke:#000000;stroke-width:5.30484;stroke-linecap:round;stroke-linejoin:round;stroke-miterlimit:4;stroke-dasharray:none;stroke-opacity:0;paint-order:stroke markers fill"
       d="m 238.2808,453.37816 c -6.29128,0.53468 -8.2653,7.55294 -7.20284,12.88783 4.13311,104.22647 8.43272,208.4478 12.8464,312.66319 0.92518,8.89711 -0.36512,18.28407 2.47468,26.85172 3.70339,5.95523 11.77172,6.02707 17.68254,8.5515 14.3978,4.03302 28.667,8.9427 43.42774,11.42717 6.19739,1.11085 11.12569,-4.93579 9.71326,-10.8521 -3.19982,-113.55942 -5.20024,-227.1428 -8.40188,-340.70621 -0.41318,-7.19662 -8.24877,-9.41844 -14.22014,-9.85491 -18.62917,-3.06112 -36.7828,-7.56004 -55.33622,-10.98075 l -0.71423,0.009 z"
       id="path2366"
       transform="scale(0.26458333)" />
    <path
       style="fill:#aa4400;stroke:#000000;stroke-width:5.30484;stroke-linecap:round;stroke-linejoin:round;stroke-miterlimit:4;stroke-dasharray:none;stroke-opacity:0;paint-order:stroke markers fill"
       d="m 309.4164,467.0305 c -6.14633,0.17076 -8.89173,6.79275 -7.79701,12.16788 2.60188,111.30791 5.37096,222.90228 8.00488,334.02772 -0.24089,5.19626 -0.66295,12.36445 5.53711,14.29827 19.46997,4.60171 39.40781,7.18391 59.24805,9.71679 6.31937,0.0657 14.26411,2.8718 19.03041,-2.66183 2.71092,-7.16341 1.21817,-15.1521 1.86985,-22.69504 1.12938,-109.23262 2.04632,-218.47048 2.38797,-327.70814 -0.16007,-5.8661 -6.01216,-8.58776 -11.20587,-8.42273 -25.69633,-2.38008 -50.88076,-5.35251 -76.38761,-8.71036 l -0.52734,-0.014 z"
       id="path2368"
       transform="scale(0.26458333)" />
    <path
       style="fill:#aa4400;stroke:#000000;stroke-width:5.30484;stroke-linecap:round;stroke-linejoin:round;stroke-miterlimit:4;stroke-dasharray:none;stroke-opacity:0;paint-order:stroke markers fill"
       d="m 395.48644,477.2007 c -6.85241,3.95939 -4.03411,12.80844 -4.95815,19.30246 -1.21783,104.55173 -1.93588,209.11181 -2.24051,313.67048 0.47914,8.24546 -1.05138,16.74236 0.94726,24.79771 4.43098,6.17041 12.93472,3.92272 19.51959,4.75591 27.28405,0.10963 54.70395,0.50866 81.84202,-2.73582 5.84495,-0.28838 8.78498,-6.46137 7.78879,-11.72712 -1.77041,-110.81001 -3.60491,-221.62329 -6.06313,-332.41917 0.36248,-5.5201 -1.26655,-12.75656 -7.96729,-13.11096 -28.62098,-0.46085 -57.17071,-1.3897 -85.79032,-3.10143 -1.02609,0.18931 -2.05217,0.37863 -3.07826,0.56794 z"
       id="path2370"
       transform="scale(0.26458333)" />
    <path
       style="fill:#aa4400;stroke:#000000;stroke-width:5.30484;stroke-linecap:round;stroke-linejoin:round;stroke-miterlimit:4;stroke-dasharray:none;stroke-opacity:0;paint-order:stroke markers fill"
       d="m 572.79949,475.41638 c -26.72145,1.90809 -53.48301,3.24126 -80.25669,4.25363 -6.41154,0.46927 -8.31006,7.38746 -7.46609,12.79855 1.10021,74.89694 2.93678,149.78429 4.09252,224.68183 0.76697,37.25192 1.03005,74.57034 2.03724,111.78179 0.5723,6.44274 7.96071,8.03328 13.17391,6.20999 23.68115,-3.90626 47.31323,-9.0861 69.90041,-17.2132 7.21021,-3.42467 4.26027,-12.5881 5.17187,-18.94673 1.37904,-102.15089 1.96278,-204.314 2.47533,-306.47322 -0.14891,-5.73084 1.45505,-13.8228 -5.18827,-16.51104 -1.23828,-0.55126 -2.60727,-0.60289 -3.94023,-0.5816 z"
       id="path2372"
       transform="scale(0.26458333)" />
    <path
       style="fill:#aa4400;stroke:#000000;stroke-width:5.30484;stroke-linecap:round;stroke-linejoin:round;stroke-miterlimit:4;stroke-dasharray:none;stroke-opacity:0;paint-order:stroke markers fill"
       d="m 672.22891,456.0665 c -11.47067,2.07624 -22.41706,6.56019 -33.91189,8.70449 -18.66147,4.40025 -38.02768,6.67181 -57.06155,9.72345 -7.71591,1.92796 -5.95051,11.12051 -6.44983,17.14125 -1.4131,104.95451 -1.47493,209.92388 -2.82088,314.88003 0.18767,7.33147 8.80318,9.45032 14.52288,6.86244 27.64741,-10.70089 53.84175,-25.36651 77.18175,-43.67563 6.76461,-4.62048 3.914,-13.63065 4.97058,-20.53096 3.90243,-95.15615 8.37644,-190.29387 11.68417,-285.47115 -0.4585,-4.13217 -3.75325,-7.79631 -8.11523,-7.63392 z"
       id="path2374"
       transform="scale(0.26458333)" />
    <path
       style="fill:#aa4400;stroke:#000000;stroke-width:5.30484;stroke-linecap:round;stroke-linejoin:round;stroke-miterlimit:4;stroke-dasharray:none;stroke-opacity:0;paint-order:stroke markers fill"
       d="m 721.01657,430.19736 c -8.58186,1.12512 -14.01808,8.93753 -21.55413,12.48325 -7.27479,4.79983 -15.9195,7.17224 -23.0785,11.99462 -4.41281,5.81787 -2.64423,14.02289 -3.59915,20.93192 -4.08446,91.64123 -7.64719,183.30563 -11.63289,274.95153 0.003,7.82516 9.49535,9.85364 15.41294,7.07032 8.30157,-5.18621 14.22765,-13.38037 21.06113,-20.27116 4.36951,-4.86891 9.52365,-10.06256 8.79517,-17.17535 8.052,-93.74032 16.35197,-187.46502 24.20899,-281.21839 0.0309,-5.05006 -4.59858,-9.23541 -9.61356,-8.76674 z"
       id="path2378"
       transform="scale(0.26458333)" />
    <path
       style="fill:#aa4400;stroke:#000000;stroke-width:5.30484;stroke-linecap:round;stroke-linejoin:round;stroke-miterlimit:4;stroke-dasharray:none;stroke-opacity:0;paint-order:stroke markers fill"
       d="m 645.22695,347.50344 c -5.95527,-0.49069 -10.8318,4.72529 -9.87888,10.646 -0.50551,22.73686 -1.80077,45.52683 -1.53314,68.23972 1.0983,7.28857 9.78857,8.67504 14.81228,12.67388 5.63018,3.79101 12.59936,8.20606 19.49874,4.73225 16.01261,-6.30502 33.5582,-15.03981 40.71986,-31.75363 2.87838,-9.77455 2.05379,-21.13022 -3.98437,-29.62053 -11.3144,-17.0495 -31.04472,-25.33808 -49.38058,-32.54325 -3.31625,-1.11212 -6.71224,-2.35842 -10.25391,-2.37444 z"
       id="path2380"
       transform="scale(0.26458333)" />
    <path
       style="fill:#aa4400;stroke:#000000;stroke-width:5.30484;stroke-linecap:round;stroke-linejoin:round;stroke-miterlimit:4;stroke-dasharray:none;stroke-opacity:0;paint-order:stroke markers fill"
       d="m 559.79168,330.39127 c -5.81157,-0.0756 -9.06643,6.0869 -8.16226,11.31418 0.22157,19.54631 0.28223,39.12894 1.47979,58.63839 1.75327,7.50436 10.63758,7.23054 16.58411,9.05431 18.91668,4.27842 38.05056,10.05434 56.17677,17.57236 5.85175,2.06691 14.64098,0.46111 15.15765,-6.94894 0.46198,-22.9333 1.49188,-45.88803 1.81425,-68.76803 -0.64207,-7.86062 -9.90892,-7.88974 -15.75552,-9.69249 -22.14782,-5.07084 -44.64782,-9.25408 -67.29479,-11.16978 z"
       id="path2382"
       transform="scale(0.26458333)" />
    <path
       style="fill:#aa4400;stroke:#000000;stroke-width:5.30484;stroke-linecap:round;stroke-linejoin:round;stroke-miterlimit:4;stroke-dasharray:none;stroke-opacity:0;paint-order:stroke markers fill"
       d="m 466.3779,325.46382 c -6.42819,4.75773 -4.03385,13.79473 -4.87621,20.72075 -0.17264,14.75567 -1.03526,29.61362 -0.49737,44.30801 0.95443,7.16294 9.4341,6.84589 14.95191,6.90676 24.61243,1.34349 49.13601,3.59894 73.42883,8.10484 6.44826,1.62355 10.94953,-5.19243 10.32292,-11.00576 0.10596,-19.42687 -0.0833,-38.89142 -1.30301,-58.28404 -0.69948,-6.45425 -7.62835,-7.82546 -13.012,-7.64928 -25.06283,-1.81975 -50.14842,-3.86745 -75.28879,-4.04855 -1.24209,0.31576 -2.48418,0.63151 -3.72628,0.94727 z"
       id="path2384"
       transform="scale(0.26458333)" />
    <path
       style="fill:#aa4400;stroke:#000000;stroke-width:5.30484;stroke-linecap:round;stroke-linejoin:round;stroke-miterlimit:4;stroke-dasharray:none;stroke-opacity:0;paint-order:stroke markers fill"
       d="m 427.58465,324.78022 c -16.75702,0.4483 -33.61563,0.11005 -50.29468,1.58789 -6.81874,0.91233 -7.20998,8.74597 -6.54576,14.15305 0.63564,17.02431 0.009,34.20354 1.89365,51.12235 0.96123,6.1886 7.99286,7.17146 13.07598,5.96456 24.8424,-0.87794 50.07991,-0.64769 75.06762,-1.44366 7.76573,-0.91597 7.59268,-10.04806 7.61128,-16.03374 0.33346,-16.19223 0.821,-32.44066 0.68531,-48.60392 -0.40047,-6.7417 -8.04959,-7.99797 -13.45711,-7.14171 -9.34543,0.13173 -18.69086,0.26345 -28.03629,0.39518 z"
       id="path2386"
       transform="scale(0.26458333)" />
    <path
       style="fill:#aa4400;stroke:#000000;stroke-width:5.30484;stroke-linecap:round;stroke-linejoin:round;stroke-miterlimit:4;stroke-dasharray:none;stroke-opacity:0;paint-order:stroke markers fill"
       d="m 367.58744,326.90215 c -27.55851,1.63668 -55.12561,4.38455 -82.42278,8.29373 -7.39303,1.62079 -6.21882,10.28543 -6.15888,16.05198 0.19427,17.14619 0.53598,34.35079 1.4366,51.44263 0.60097,6.04626 7.53163,7.97107 12.56255,6.13948 26.31943,-4.94166 52.94589,-7.89783 79.57135,-10.56063 6.00822,-1.2096 7.30576,-7.81595 6.54855,-13.01339 -0.45125,-17.3986 -0.37035,-34.86521 -1.66472,-52.20994 -1.24497,-4.41754 -5.45634,-6.68485 -9.87267,-6.14386 z"
       id="path2388"
       transform="scale(0.26458333)" />
    <path
       style="fill:#aa4400;stroke:#000000;stroke-width:5.30484;stroke-linecap:round;stroke-linejoin:round;stroke-miterlimit:4;stroke-dasharray:none;stroke-opacity:0;paint-order:stroke markers fill"
       d="m 276.46579,336.80868 c -19.64549,2.26586 -39.02211,6.66636 -58.23382,11.29744 -5.54791,0.76348 -11.65493,4.87479 -10.46596,11.19698 1.55013,21.02716 3.1623,42.0784 5.72545,63.00502 1.30729,6.85923 9.84071,8.64879 15.32227,5.5971 17.20631,-7.7408 35.59554,-12.43915 53.76319,-17.16729 7.59297,-2.80965 4.73448,-12.01021 4.93589,-18.20475 -0.89625,-16.62643 -0.34505,-33.39739 -2.3319,-49.9293 -1.18304,-3.62853 -4.88038,-6.15406 -8.71512,-5.7952 z"
       id="path2390"
       transform="scale(0.26458333)" />
    <path
       style="fill:#aa4400;stroke:#000000;stroke-width:5.30484;stroke-linecap:round;stroke-linejoin:round;stroke-miterlimit:4;stroke-dasharray:none;stroke-opacity:0;paint-order:stroke markers fill"
       d="m 206.01657,352.40299 c -11.89641,2.4725 -23.29541,7.46487 -33.8337,13.48075 -8.97396,5.46673 -19.49545,13.46483 -18.66909,25.22461 0.66152,13.20519 12.92487,21.50803 23.26753,27.57245 10.63638,5.64484 21.70386,11.17379 33.57818,13.53665 6.62677,0.86746 11.48206,-5.94013 10.26646,-12.1024 -2.21585,-20.50523 -3.65184,-41.10697 -6.24163,-61.56669 -1.03863,-3.61663 -4.49147,-6.45824 -8.36775,-6.14537 z"
       id="path2392"
       transform="scale(0.26458333)" />
    <path
       style="fill:#aa4400;stroke:#000000;stroke-width:5.30484;stroke-linecap:round;stroke-linejoin:round;stroke-miterlimit:4;stroke-dasharray:none;stroke-opacity:0;paint-order:stroke markers fill"
       d="m 420.39157,303.22051 c -65.31849,0.41644 -130.96682,4.95288 -194.87919,19.01717 -28.26399,6.71902 -57.01348,14.83018 -81.38902,31.17339 -12.1006,8.19008 -23.4716,21.53838 -21.36851,37.12669 2.55352,17.19973 17.15509,29.1645 31.11463,37.73276 33.4066,19.56088 71.44996,29.14477 108.92938,37.4761 13.3288,2.54195 26.63274,6.22031 40.24478,6.59638 3.9299,0.32595 7.94855,2.42111 12.12207,2.62577 45.02013,6.44089 90.4264,10.36695 135.8982,11.34623 34.82281,-0.18205 69.7066,0.11724 104.46376,-2.30002 8.19363,-0.50878 16.51108,-1.39911 24.50537,-2.78805 17.89481,-0.84316 35.5526,-4.58412 53.14947,-7.78413 28.00015,-6.12933 56.61266,-14.15448 80.08259,-31.25975 13.51281,-9.62134 23.57564,-25.80945 21.34383,-42.86878 -1.9775,-20.16819 -17.51119,-35.75076 -33.90483,-45.97414 -31.05313,-19.06028 -66.96696,-28.03429 -102.30076,-35.36472 -58.56465,-11.37298 -118.45632,-14.65947 -178.01177,-14.7549 z m 25.99749,28.62863 c 48.62604,0.17542 97.11638,2.16317 145.08596,10.17059 29.80958,5.08891 60.18872,11.42138 86.856,26.27891 12.23267,7.04391 25.17301,18.16716 25.0028,33.50586 -0.4461,14.24822 -13.36958,23.37744 -24.82917,29.37032 -23.67985,11.82095 -50.16082,16.80048 -75.98715,20.77646 -61.78821,8.54804 -124.37869,8.83769 -186.52464,5.58995 -60.3198,-3.57138 -121.10437,-9.94521 -179.67715,-24.70666 -21.74162,-5.90536 -44.08689,-12.1649 -63.08932,-24.96841 -6.87203,-4.77921 -15.06647,-12.88246 -11.6169,-22.07031 5.34252,-10.44168 17.06834,-15.42286 26.97818,-19.97885 32.0006,-12.94917 66.19973,-18.72433 100.08999,-23.68385 52.37223,-7.04869 105.00106,-10.15207 157.7114,-10.28401 z"
       id="path2394"
       transform="scale(0.26458333)" />
    <path
       style="fill:#000080;stroke:#000000;stroke-width:10.6097;stroke-linecap:round;stroke-linejoin:round;stroke-miterlimit:4;stroke-dasharray:none;stroke-opacity:0;paint-order:stroke markers fill"
       d="m 442.48324,389.8724 c -48.60633,-0.34553 -97.37647,1.90768 -145.15792,11.41842 -20.44887,4.17219 -41.58316,7.94668 -60.60029,16.41065 -4.9259,4.99367 -4.51167,15.96211 -0.31339,21.24591 13.01367,5.81965 28.02333,6.91684 41.99406,10.10325 53.89833,9.09611 108.4627,15.19361 163.12608,16.42958 61.64599,-0.26148 123.89097,1.84384 184.66122,-10.51434 9.36097,-1.88362 24.86298,-3.25459 24.8533,-15.95284 -2.12873,-12.13655 -16.97277,-14.42214 -26.1253,-19.61122 -49.43972,-19.77571 -103.0577,-26.94527 -155.95503,-29.30468 -8.82599,-0.1943 -17.65503,-0.23198 -26.48273,-0.22473 z"
       id="path2398"
       transform="scale(0.26458333)" />
    <path
       style="fill:#000080;stroke:#000000;stroke-width:10.6097;stroke-linecap:round;stroke-linejoin:round;stroke-miterlimit:4;stroke-dasharray:none;stroke-opacity:0;paint-order:stroke markers fill"
       d="m 425.86215,389.89752 c -56.06854,-0.77621 -112.31117,5.68159 -166.61831,19.67912 -9.38929,3.87441 -23.80016,3.79287 -27.42745,15.08929 -2.24844,9.08609 4.73954,17.46136 13.92857,17.899 61.18015,13.56473 123.8098,20.30429 186.37277,22.81529 62.0538,0.9726 124.5628,2.1054 185.91518,-8.86998 10.72006,-2.86604 23.82197,-2.04686 32.29632,-10.07534 6.7649,-9.29561 -3.55846,-18.29343 -11.9771,-21.01995 -46.31188,-22.38914 -98.11859,-30.54846 -148.9922,-34.2531 -21.14889,-1.00043 -42.32795,-1.24716 -63.49778,-1.26433 z"
       id="path2400"
       transform="scale(0.26458333)" />
    <path
       style="fill:#000080;stroke:#000000;stroke-width:10.6097;stroke-linecap:round;stroke-linejoin:round;stroke-miterlimit:4;stroke-dasharray:none;stroke-opacity:0;paint-order:stroke markers fill"
       d="m 425.86215,389.89752 c -56.06854,-0.77621 -112.31117,5.68159 -166.61831,19.67912 -9.38929,3.87441 -23.80016,3.79287 -27.42745,15.08929 -2.24844,9.08609 4.73954,17.46136 13.92857,17.899 61.18015,13.56473 123.8098,20.30429 186.37277,22.81529 62.0538,0.9726 124.5628,2.1054 185.91518,-8.86998 10.72006,-2.86604 23.82197,-2.04686 32.29632,-10.07534 6.7649,-9.29561 -3.55846,-18.29343 -11.9771,-21.01995 -46.31188,-22.38914 -98.11859,-30.54846 -148.9922,-34.2531 -21.14889,-1.00043 -42.32795,-1.24716 -63.49778,-1.26433 z"
       id="path2402"
       transform="scale(0.26458333)" />
    <path
       style="fill:#000080;stroke:#000000;stroke-width:10.6097;stroke-linecap:round;stroke-linejoin:round;stroke-miterlimit:4;stroke-dasharray:none;stroke-opacity:0;paint-order:stroke markers fill"
       d="m 425.86215,389.89752 c -56.06854,-0.77621 -112.31117,5.68159 -166.61831,19.67912 -9.38929,3.87441 -23.80016,3.79287 -27.42745,15.08929 -2.24844,9.08609 4.73954,17.46136 13.92857,17.899 61.18015,13.56473 123.8098,20.30429 186.37277,22.81529 62.0538,0.9726 124.5628,2.1054 185.91518,-8.86998 10.72006,-2.86604 23.82197,-2.04686 32.29632,-10.07534 6.7649,-9.29561 -3.55846,-18.29343 -11.9771,-21.01995 -46.31188,-22.38914 -98.11859,-30.54846 -148.9922,-34.2531 -21.14889,-1.00043 -42.32795,-1.24716 -63.49778,-1.26433 z"
       id="path2404"
       transform="scale(0.26458333)" />
    <path
       style="fill:#000080;stroke:#000000;stroke-width:1.32621;stroke-linecap:round;stroke-linejoin:round;stroke-miterlimit:4;stroke-dasharray:none;stroke-opacity:0;paint-order:stroke markers fill"
       d="m 427.37479,393.61639 c -27.35698,0.15014 -54.70286,1.80196 -81.9004,4.73445 -19.76892,2.2034 -39.49137,5.03625 -58.95165,9.18854 -2.43835,0.77897 -5.00905,0.93885 -7.48934,1.57493 -16.53075,3.79039 -33.00146,8.30051 -48.53151,15.21044 -1.75957,0.80683 -1.73007,2.86571 -1.70255,4.51939 -0.08,2.1619 0.46272,5.06518 2.94202,5.62786 29.87193,7.89957 60.3794,13.15279 90.98184,17.26741 45.80326,6.0393 91.96075,9.25575 138.14279,10.23507 17.37798,0.085 34.75853,0.10132 52.1351,-0.14459 1.85873,-0.20609 4.44575,0.4582 5.51734,-1.52447 0.8109,-1.60269 0.24048,-3.52608 0.4119,-5.26395 -0.0403,-18.18403 0.1,-36.37039 -0.13708,-54.55287 -0.0945,-1.75518 -1.85141,-2.79596 -3.48528,-2.7138 -15.38157,-1.69701 -30.82615,-2.85607 -46.28827,-3.47861 -1.63452,-0.0682 -3.31489,-0.0119 -4.90557,0.24061 -3.26239,-0.89078 -6.70847,-0.56765 -10.05452,-0.74377 -8.89425,-0.11817 -17.78968,-0.20028 -26.68482,-0.17664 z"
       id="path2406"
       transform="scale(0.26458333)" />
    <path
       style="fill:#000080;stroke:#000000;stroke-width:0.234443;stroke-linecap:round;stroke-linejoin:round;stroke-miterlimit:4;stroke-dasharray:none;stroke-opacity:0;paint-order:stroke markers fill"
       d="m 228.66558,428.10687 c -0.63843,0.24945 -1.23846,0.59435 -1.85354,0.89729 -0.38251,0.21684 -0.80258,0.37891 -1.15737,0.63915 -0.10683,0.13282 -0.0436,0.39336 0.15762,0.3808 0.99222,0.2688 1.97512,0.57962 2.97777,0.80581 0.13505,0.0309 0.23709,-0.10657 0.17473,-0.22726 -0.12021,-0.79033 -0.0305,-1.59136 -0.11856,-2.38487 -0.0194,-0.0809 -0.10193,-0.12191 -0.18065,-0.11092 z"
       id="path2416"
       transform="scale(0.26458333)" />
    <path
       style="fill:#000080;stroke:#000000;stroke-width:0.234443;stroke-linecap:round;stroke-linejoin:round;stroke-miterlimit:4;stroke-dasharray:none;stroke-opacity:0;paint-order:stroke markers fill"
       d="m 288.99938,409.61838 c -0.88382,0.16622 -1.76707,0.34556 -2.64351,0.54398 -0.47958,0.22752 -0.94897,0.48865 -1.48348,0.55532 -0.3828,0.0709 -0.7789,0.0516 -1.16644,0.0198 -1.00202,0.1694 -1.98749,0.42858 -2.98219,0.63665 -10.91338,2.44164 -21.75173,5.26703 -32.36437,8.80583 -6.87415,2.30823 -13.66908,4.90116 -20.17176,8.12303 -0.85137,0.43576 -1.71853,0.84629 -2.54344,1.3304 -0.21458,0.13066 -0.0671,0.48389 0.16461,0.48205 1.01526,0.26507 2.03204,0.59005 3.05031,0.80604 0.1239,0.176 0.38315,0.16543 0.56748,0.2441 14.85846,4.08103 29.91884,7.39344 45.05377,10.2691 4.82911,0.9156 9.66766,1.781 14.51292,2.60664 0.21182,-0.0389 0.0808,-0.32624 0.11707,-0.47733 0.002,-11.28283 0.019,-22.56569 0.005,-33.8485 -0.0111,-0.0563 -0.0554,-0.10414 -0.11554,-0.0971 z"
       id="path2418"
       transform="scale(0.26458333)" />
  </g>
  <g
     inkscape:groupmode="layer"
     id="layer7"
     inkscape:label="Layer 2">
    <path
       id="path2290"
       style="fill:none;stroke:#000000;stroke-width:1.965;stroke-linecap:round;stroke-linejoin:miter;stroke-opacity:1;stroke-miterlimit:4;stroke-dasharray:none"
       d="m 169.14434,92.982141 c 0,0.755952 -0.56696,19.465779 -0.56696,19.465779 m -21.73363,-24.19048 0.37797,18.52083 m -24.00148,-19.465771 -0.37798,16.819941 m -23.8125,-15.875 0.377978,14.93006 M 74.650297,90.714284 75.21726,107.72321 M 55.751489,94.116071 57.641368,113.77083 m 0,0 C 74.115172,102.92152 146.7703,97.269461 174.05803,116.60565 M 41.577381,102.62053 c -3.050258,20.76353 146.217089,30.4064 145.520829,3.40179 C 186.37253,77.876767 44.302912,84.067464 41.577381,102.62053 Z m 137.583329,19.27679 -3.40179,80.31994 m -22.67856,-75.97321 -0.75596,89.58035 m -23.05654,-87.50148 1.70089,92.79315 m -26.64732,-93.7381 -0.75596,93.7381 m -22.867554,-97.32887 2.267857,94.49405 m -20.97768,-97.32887 3.779764,91.65922 M 45.546131,115.47172 49.325892,206.375 m 143.441958,-95.25 -6.99256,81.07589 m -148.355648,1.70089 -4.047789,-91.26356 v 0 m 4.047789,91.26356 c 7.267104,21.23856 106.405488,50.148 148.355648,-1.70089 M 33.371853,102.63822 c 1.123353,27.69964 159.752297,37.24673 160.126757,4.35439 C 193.90111,71.636929 32.2485,74.938582 33.371853,102.63822 Z" />
  </g>
</svg>
