<?xml version="1.0" encoding="UTF-8" standalone="no"?>
<svg
   xmlns:dc="http://purl.org/dc/elements/1.1/"
   xmlns:cc="http://creativecommons.org/ns#"
   xmlns:rdf="http://www.w3.org/1999/02/22-rdf-syntax-ns#"
   xmlns:svg="http://www.w3.org/2000/svg"
   xmlns="http://www.w3.org/2000/svg"
   xmlns:sodipodi="http://sodipodi.sourceforge.net/DTD/sodipodi-0.dtd"
   xmlns:inkscape="http://www.inkscape.org/namespaces/inkscape"
   width="210mm"
   height="297mm"
   viewBox="0 0 210 297"
   version="1.1"
   id="svg2426"
   inkscape:version="1.0.1 (3bc2e813f5, 2020-09-07)"
   sodipodi:docname="wateringcan.svg">
  <defs
     id="defs2420" />
  <sodipodi:namedview
     id="base"
     pagecolor="#ffffff"
     bordercolor="#666666"
     borderopacity="1.0"
     inkscape:pageopacity="0.0"
     inkscape:pageshadow="2"
     inkscape:zoom="0.7"
     inkscape:cx="-136.62794"
     inkscape:cy="723.57938"
     inkscape:document-units="mm"
     inkscape:current-layer="layer10"
     inkscape:document-rotation="0"
     showgrid="false"
     inkscape:window-width="2560"
     inkscape:window-height="1417"
     inkscape:window-x="-8"
     inkscape:window-y="-8"
     inkscape:window-maximized="1" />
  <metadata
     id="metadata2423">
    <rdf:RDF>
      <cc:Work
         rdf:about="">
        <dc:format>image/svg+xml</dc:format>
        <dc:type
           rdf:resource="http://purl.org/dc/dcmitype/StillImage" />
        <dc:title></dc:title>
      </cc:Work>
    </rdf:RDF>
  </metadata>
  <g
     inkscape:groupmode="layer"
     id="layer10"
     inkscape:label="Layer 2">
    <path
       style="fill:#ff5555;stroke:#000000;stroke-width:7.34946;stroke-linecap:round;stroke-linejoin:round;stroke-miterlimit:4;stroke-dasharray:none;stroke-opacity:0;paint-order:stroke markers fill"
       d="m 367.08257,638.02288 c -39.39189,-0.0966 -79.68992,6.39116 -114.91866,24.71125 -5.66064,1.39942 -5.66695,10.42876 0.45181,10.94003 29.69845,6.37591 60.06399,10.31889 90.44809,10.83225 33.69388,0.32128 67.37856,-3.28144 100.09983,-11.41427 8.70335,-2.74361 18.5414,-3.26492 26.42969,-7.97863 3.63866,-5.26005 -3.64437,-9.08381 -7.78528,-10.48231 -29.7148,-12.58107 -62.62055,-17.07688 -94.72548,-16.60832 z"
       id="path3026"
       transform="scale(0.26458333)"
       inkscape:export-xdpi="1000"
       inkscape:export-ydpi="1000" />
    <path
       style="fill:#ff5555;stroke:#000000;stroke-width:0.918682;stroke-linecap:round;stroke-linejoin:round;stroke-miterlimit:4;stroke-dasharray:none;stroke-opacity:0;paint-order:stroke markers fill"
       d="m 247.50841,665.13632 c -1.64091,0.32067 -2.92376,1.54226 -4.32307,2.38405 -1.09854,0.63577 -2.21107,1.76942 -1.83186,3.15407 0.13147,1.39856 1.71521,1.63174 2.82733,1.84275 1.52349,0.27261 3.02175,0.83118 4.57475,0.8651 1.36459,-0.10612 2.06506,-1.74264 1.45037,-2.8963 -0.75116,-1.33922 -0.20649,-2.9034 -0.6126,-4.31362 -0.41465,-0.76291 -1.22918,-1.13954 -2.08492,-1.03605 z"
       id="path3028"
       transform="scale(0.26458333)"
       inkscape:export-xdpi="1000"
       inkscape:export-ydpi="1000" />
    <path
       style="fill:#ffaaaa;stroke:#000000;stroke-width:1.29921;stroke-linecap:round;stroke-linejoin:round;stroke-miterlimit:4;stroke-dasharray:none;stroke-opacity:0;paint-order:stroke markers fill"
       d="m 469.6655,658.86374 c -1.45457,1.05422 -0.77561,3.03242 -0.91553,4.56334 -0.19203,1.43312 0.93333,3.10788 2.52023,2.67752 1.74387,-0.56979 3.79881,-0.74867 5.1573,-2.08391 1.07315,-1.27901 0.054,-3.06919 -1.3058,-3.62828 -1.66546,-0.82248 -3.50242,-2.31346 -5.4562,-1.52867 z"
       id="path3030"
       transform="scale(0.26458333)"
       inkscape:export-xdpi="1000"
       inkscape:export-ydpi="1000" />
    <path
       style="fill:#ffaaaa;stroke:#000000;stroke-width:3.67473;stroke-linecap:round;stroke-linejoin:round;stroke-miterlimit:4;stroke-dasharray:none;stroke-opacity:0;paint-order:stroke markers fill"
       d="m 479.85079,668.05556 c -6.54371,1.2582 -12.77699,3.83812 -19.35699,5.3764 -46.8483,13.00919 -95.99496,18.36294 -144.41536,14.2898 -25.34334,-1.88043 -50.32298,-6.48994 -75.15339,-11.7221 -1.96018,-0.69518 -5.35292,-0.39913 -4.99207,2.43726 -4.27043,109.61967 -8.47286,219.24341 -12.97023,328.85338 -0.98247,4.025 3.75281,3.3457 6.26564,3.2701 90.30508,0 180.61015,0 270.91522,0 3.26142,-0.9685 1.03159,-5.1656 1.45869,-7.5943 -6.19545,-110.25611 -12.10673,-220.53013 -18.49515,-330.77424 -0.0396,-1.98406 -0.792,-4.37638 -3.25636,-4.1363 z"
       id="path3032"
       transform="scale(0.26458333)"
       inkscape:export-xdpi="1000"
       inkscape:export-ydpi="1000" />
    <path
       style="fill:#ffaaaa;stroke:#000000;stroke-width:3.67473;stroke-linecap:round;stroke-linejoin:round;stroke-miterlimit:4;stroke-dasharray:none;stroke-opacity:0;paint-order:stroke markers fill"
       d="m 537.85959,695.90973 c -16.10487,0.46883 -32.09204,3.60265 -47.64911,7.40999 -2.08024,2.00122 -0.37988,5.59321 -0.64979,8.27105 0.44171,2.67767 -0.49746,7.67843 3.39841,8.00822 5.54683,-1.13216 10.80709,-3.41437 16.38898,-4.44525 7.03199,-1.37737 14.91269,-4.04934 21.89225,-0.94387 4.19057,2.35366 2.39255,7.84608 1.97078,11.61742 -5.83857,32.32714 -13.67896,64.37566 -20.73585,96.50316 -4.33344,18.42357 -7.96739,37.13851 -12.81404,55.36531 -0.74054,6.39095 0.23245,12.99139 0.25914,19.4524 0.54289,8.79512 0.46902,17.69537 1.66055,26.41582 1.616,2.6531 7.20889,2.20969 6.89449,-1.56159 14.81494,-69.11281 29.91066,-138.16799 44.2081,-207.38995 0.57309,-4.53324 2.39043,-9.08825 2.11587,-13.648 -2.4089,-4.14519 -8.05431,-4.47803 -12.33301,-4.9696 -1.53339,-0.0935 -3.07103,-0.10639 -4.60677,-0.0851 z m -38.18258,181.75939 c 0.0395,-0.10525 0.22336,-0.31807 0,0 z"
       id="path3034"
       transform="scale(0.26458333)"
       inkscape:export-xdpi="1000"
       inkscape:export-ydpi="1000" />
    <path
       style="fill:#ffaaaa;stroke:#000000;stroke-width:3.67473;stroke-linecap:round;stroke-linejoin:round;stroke-miterlimit:4;stroke-dasharray:none;stroke-opacity:0;paint-order:stroke markers fill"
       d="m 193.16575,727.78872 c -8.34587,2.74688 -16.41409,6.48247 -24.32159,10.33335 -2.53156,0.79985 -2.93827,3.52634 -1.95027,5.70578 15.15096,68.04809 30.67439,136.01581 46.57356,203.89298 0.0795,2.24758 1.44522,4.73546 4.05245,4.17083 3.45124,0.63845 4.07606,-2.78758 3.73034,-5.43578 1.65975,-44.27533 3.57859,-88.56571 5.07522,-132.83172 -10.20079,-27.8747 -19.92331,-55.95292 -30.81259,-83.57429 -0.42054,-1.05584 -0.99268,-2.29932 -2.34712,-2.26115 z"
       id="path3036"
       transform="scale(0.26458333)"
       inkscape:export-xdpi="1000"
       inkscape:export-ydpi="1000" />
    <path
       style="fill:#bb4d5c;stroke:#000000;stroke-width:3.67473;stroke-linecap:round;stroke-linejoin:round;stroke-miterlimit:4;stroke-dasharray:none;stroke-opacity:0;paint-order:stroke markers fill;fill-opacity:1"
       d="m 469.73046,658.4405 c -3.63531,0.24465 -3.62437,6.05584 -1.04369,7.59193 2.66268,0.58586 7.41577,-0.98589 6.63406,-4.42534 -0.88137,-2.05949 -3.51195,-3.04214 -5.59037,-3.16659 z"
       id="path3038"
       transform="scale(0.26458333)"
       inkscape:export-xdpi="1000"
       inkscape:export-ydpi="1000" />
    <path
       style="fill:#c55967;fill-opacity:1;stroke:#000000;stroke-width:3.67473;stroke-linecap:round;stroke-linejoin:round;stroke-miterlimit:4;stroke-dasharray:none;stroke-opacity:0;paint-order:stroke markers fill"
       d="m 364.87034,637.39011 c -34.76738,0.60849 -69.9458,5.94305 -102.0865,19.65537 -5.95886,2.89301 -12.32615,5.42341 -17.47353,9.65089 -1.93814,2.06533 -1.06474,6.05154 2.05779,6.27005 27.95261,6.09848 56.39201,10.41489 85.00052,11.60046 23.45094,0.26025 47.01592,0.15933 70.24977,-3.42996 22.1227,-3.14848 44.18186,-7.72469 65.46067,-14.40923 2.01873,-1.86411 -0.33316,-5.15684 1.23257,-7.42398 -0.5608,-3.32104 -4.95912,-3.60123 -7.36055,-5.12783 -30.50971,-12.86693 -64.19189,-16.9925 -97.08074,-16.78577 z"
       id="path3040"
       transform="scale(0.26458333)"
       inkscape:export-xdpi="1000"
       inkscape:export-ydpi="1000" />
    <path
       style="fill:#c55967;fill-opacity:1;stroke:#000000;stroke-width:3.67473;stroke-linecap:round;stroke-linejoin:round;stroke-miterlimit:4;stroke-dasharray:none;stroke-opacity:0;paint-order:stroke markers fill"
       d="m 365.0558,637.38715 c -34.82904,0.59013 -70.07367,5.92314 -102.27196,19.65833 -5.95886,2.89301 -12.32615,5.42341 -17.47353,9.65089 -1.93814,2.06533 -1.06474,6.05154 2.05779,6.27005 27.95261,6.09848 56.39201,10.41489 85.00052,11.60046 23.60044,0.26966 47.31308,0.13887 70.69411,-3.47562 22.3665,-3.17231 44.55008,-8.00238 66.13349,-14.61586 2.19873,-2.01492 1.29557,-5.74249 0.85932,-8.25411 -5.59552,-3.45158 -12.17567,-5.7078 -18.41566,-8.0632 -27.72469,-9.60975 -57.35063,-12.99425 -86.58408,-12.77094 z"
       id="path3042"
       transform="scale(0.26458333)"
       inkscape:export-xdpi="1000"
       inkscape:export-ydpi="1000" />
    <path
       style="fill:#c37e87;fill-opacity:1;stroke:#000000;stroke-width:3.67473;stroke-linecap:round;stroke-linejoin:round;stroke-miterlimit:4;stroke-dasharray:none;stroke-opacity:0;paint-order:stroke markers fill"
       d="m 366.36584,637.34079 c -33.69285,0.4626 -67.72219,5.41646 -99.18827,17.83031 -7.45802,3.21989 -15.11635,6.44135 -21.66109,11.29937 -2.16628,1.98738 -1.41049,6.27044 1.85162,6.49595 27.95261,6.09848 56.39201,10.41489 85.00052,11.60046 23.63267,0.27435 47.37772,0.13166 70.78995,-3.48782 22.92287,-3.21169 45.56014,-8.35186 67.72354,-15.00614 2.06753,-1.55566 1.73549,-5.71493 0.39298,-7.63986 -32.45686,-15.83658 -69.07788,-21.24907 -104.90925,-21.09227 z"
       id="path3044"
       transform="scale(0.26458333)"
       inkscape:export-xdpi="1000"
       inkscape:export-ydpi="1000" />
    <path
       style="fill:#c37e87;fill-opacity:1;stroke:#000000;stroke-width:1.29921;stroke-linecap:round;stroke-linejoin:round;stroke-miterlimit:4;stroke-dasharray:none;stroke-opacity:0;paint-order:stroke markers fill"
       d="m 472.72054,659.61143 c -1.54593,-0.0193 -2.26034,1.63785 -2.06997,2.97398 -0.43886,1.24872 0.27083,2.83223 1.69608,2.92376 1.54936,-0.0456 3.66062,-0.33286 4.29548,-1.99219 0.61775,-1.73376 -0.97708,-3.14488 -2.49302,-3.5934 -0.45552,-0.17472 -0.9343,-0.33361 -1.42857,-0.31215 z"
       id="path3046"
       transform="scale(0.26458333)"
       inkscape:export-xdpi="1000"
       inkscape:export-ydpi="1000" />
    <path
       style="fill:#ffaaaa;fill-opacity:1;stroke:#000000;stroke-width:0.649606;stroke-linecap:round;stroke-linejoin:round;stroke-miterlimit:4;stroke-dasharray:none;stroke-opacity:0;paint-order:stroke markers fill"
       d="m 502.95112,923.19905 c -1.08161,0.0998 -1.81928,1.20591 -1.634,2.25045 0.15368,3.05493 0.28639,6.11856 0.52468,9.16425 0.12193,1.15454 1.41917,1.76344 2.46919,1.48182 1.11332,-0.15637 1.70522,-1.2631 1.80959,-2.28727 0.58776,-2.80269 1.25845,-5.59496 1.79302,-8.40453 0.18906,-1.16507 -0.9703,-2.17153 -2.1001,-1.99198 -0.79099,0.0825 -1.57522,0.0203 -2.33905,-0.19374 -0.17343,-0.0317 -0.34821,-0.0234 -0.52333,-0.019 z"
       id="path3050"
       transform="scale(0.26458333)"
       inkscape:export-xdpi="1000"
       inkscape:export-ydpi="1000" />
  </g>
  <g
     inkscape:label="Layer 1"
     inkscape:groupmode="layer"
     id="layer1">
    <path
       id="path2995-9"
       style="fill:none;stroke:#000000;stroke-width:1.925;stroke-linecap:round;stroke-linejoin:miter;stroke-miterlimit:4;stroke-dasharray:none;stroke-opacity:1"
       d="m 129.37681,191.44004 c 0,0 11.70038,-4.21398 11.2533,-0.77302 -0.72279,5.563 -2.32008,13.62182 -8.8533,42.59608 m -2.55199,-47.64442 c 0,0 19.4225,-5.13234 18.17432,0.80181 -7.62872,36.26865 -14.69982,68.55464 -14.69982,68.55464 v 0 m -74.03366,7.08263 c -0.53454,-0.8018 -15.501633,-66.81737 -15.501633,-66.81737 l 8.68626,-3.74178 8.686259,23.92062 m 1.405691,-37.58143 c 11.90625,-10.60615 47.765353,-14.35128 66.333433,-2.17336 m -69.878349,92.32069 h 75.028269 l -5.14992,-92.32069 c -24.90597,8.17656 -44.556926,7.35357 -66.333433,2.17336 z"
       sodipodi:nodetypes="csccsccccccccccccc"
       inkscape:export-xdpi="1000"
       inkscape:export-ydpi="1000" />
  </g>
</svg>
